<?xml version="1.0" encoding="UTF-8" standalone="no"?>
<svg
   viewBox="0 0 48 48"
   version="1.1"
   id="svg532"
   sodipodi:docname="reshot-icon-internet-col.svg"
   inkscape:version="1.2.2 (b0a84865, 2022-12-01)"
   xmlns:inkscape="http://www.inkscape.org/namespaces/inkscape"
   xmlns:sodipodi="http://sodipodi.sourceforge.net/DTD/sodipodi-0.dtd"
   xmlns="http://www.w3.org/2000/svg"
   xmlns:svg="http://www.w3.org/2000/svg"
   xmlns:rdf="http://www.w3.org/1999/02/22-rdf-syntax-ns#"
   xmlns:cc="http://creativecommons.org/ns#"
   xmlns:dc="http://purl.org/dc/elements/1.1/"
   xmlns:x="adobe:ns:meta/"
   xmlns:lr="http://ns.adobe.com/lightroom/1.0/"
   xmlns:xmp="http://ns.adobe.com/xap/1.0/"
   xmlns:xmpMM="http://ns.adobe.com/xap/1.0/mm/"
   xmlns:stEvt="http://ns.adobe.com/xap/1.0/sType/ResourceEvent#">
  <defs
     id="defs536" />
  <sodipodi:namedview
     id="namedview534"
     pagecolor="#ffffff"
     bordercolor="#000000"
     borderopacity="0.25"
     inkscape:showpageshadow="2"
     inkscape:pageopacity="0.0"
     inkscape:pagecheckerboard="0"
     inkscape:deskcolor="#d1d1d1"
     showgrid="false"
     inkscape:zoom="4.9166667"
     inkscape:cx="15.762712"
     inkscape:cy="24"
     inkscape:window-width="1309"
     inkscape:window-height="456"
     inkscape:window-x="0"
     inkscape:window-y="38"
     inkscape:window-maximized="0"
     inkscape:current-layer="svg532" />
  <title
     id="title489">13-www</title>
  <metadata
     id="metadata491">
<?xpacket begin="﻿" id="W5M0MpCehiHzreSzNTczkc9d"?>    <x:xmpmeta
       x:xmptk="Adobe XMP Core 9.1-c001 79.a8d4753, 2023/03/23-08:56:37        ">
      <metadata>
        <rdf:RDF>
          <rdf:Description
             rdf:about="">
            <dc:title>
              <rdf:Alt>
                <rdf:li
                   xml:lang="x-default">13-www</rdf:li>
              </rdf:Alt>
            </dc:title>
            <dc:subject>
              <rdf:Bag>
                <rdf:li>no attribution required</rdf:li>
                <rdf:li>icon</rdf:li>
                <rdf:li>black and white</rdf:li>
              </rdf:Bag>
            </dc:subject>
            <lr:hierarchicalSubject>
              <rdf:Bag>
                <rdf:li>license|no attribution required</rdf:li>
                <rdf:li>use|icon</rdf:li>
                <rdf:li>colours|black and white</rdf:li>
              </rdf:Bag>
            </lr:hierarchicalSubject>
            <xmp:MetadataDate>2023-11-28T14:38:56Z</xmp:MetadataDate>
            <xmpMM:InstanceID>xmp.iid:44b5e7d1-29c9-4a57-a933-26ac73c7418f</xmpMM:InstanceID>
            <xmpMM:DocumentID>xmp.did:15098f02-d3e1-4d8d-a864-a98bd6681ea7</xmpMM:DocumentID>
            <xmpMM:OriginalDocumentID>xmp.did:15098f02-d3e1-4d8d-a864-a98bd6681ea7</xmpMM:OriginalDocumentID>
            <xmpMM:History>
              <rdf:Seq>
                <rdf:li>
                  <rdf:Description>
                    <stEvt:action>saved</stEvt:action>
                    <stEvt:instanceID>xmp.iid:15098f02-d3e1-4d8d-a864-a98bd6681ea7</stEvt:instanceID>
                    <stEvt:when>2023-11-28T14:29:39Z</stEvt:when>
                    <stEvt:softwareAgent>Adobe Bridge 2024</stEvt:softwareAgent>
                    <stEvt:changed>/metadata</stEvt:changed>
                  </rdf:Description>
                </rdf:li>
                <rdf:li>
                  <rdf:Description>
                    <stEvt:action>saved</stEvt:action>
                    <stEvt:instanceID>xmp.iid:44b5e7d1-29c9-4a57-a933-26ac73c7418f</stEvt:instanceID>
                    <stEvt:when>2023-11-28T14:38:56Z</stEvt:when>
                    <stEvt:softwareAgent>Adobe Bridge 2024</stEvt:softwareAgent>
                    <stEvt:changed>/metadata</stEvt:changed>
                  </rdf:Description>
                </rdf:li>
              </rdf:Seq>
            </xmpMM:History>
          </rdf:Description>
          <cc:Work
             rdf:about="">
            <dc:title>13-www</dc:title>
          </cc:Work>
        </rdf:RDF>
      </metadata>
    </x:xmpmeta>
<?xpacket end="w"?>  </metadata>
  <g
     id="_13-www"
     data-name="13-www"
     style="fill:#458ab3;fill-opacity:1">
    <path
       d="M43,42H5a5.006,5.006,0,0,1-5-5V13A5.006,5.006,0,0,1,5,8H6v2H5a3,3,0,0,0-3,3V37a3,3,0,0,0,3,3H43a3,3,0,0,0,3-3V36h2v1A5.006,5.006,0,0,1,43,42Z"
       id="path493"
       style="fill:#458ab3;fill-opacity:1" />
    <rect
       x="14"
       y="46"
       width="20"
       height="2"
       id="rect495"
       style="fill:#458ab3;fill-opacity:1" />
    <rect
       x="17"
       y="41"
       width="2"
       height="6"
       id="rect497"
       style="fill:#458ab3;fill-opacity:1" />
    <rect
       x="29"
       y="41"
       width="2"
       height="6"
       id="rect499"
       style="fill:#458ab3;fill-opacity:1" />
    <path
       d="M45,34H11a3,3,0,0,1-3-3V3a3,3,0,0,1,3-3H45a3,3,0,0,1,3,3V31A3,3,0,0,1,45,34ZM11,2a1,1,0,0,0-1,1V31a1,1,0,0,0,1,1H45a1,1,0,0,0,1-1V3a1,1,0,0,0-1-1Z"
       id="path501"
       style="fill:#458ab3;fill-opacity:1" />
    <rect
       x="12"
       y="4"
       width="2"
       height="2"
       id="rect503"
       style="fill:#458ab3;fill-opacity:1" />
    <rect
       x="16"
       y="4"
       width="2"
       height="2"
       id="rect505"
       style="fill:#458ab3;fill-opacity:1" />
    <rect
       x="20"
       y="4"
       width="2"
       height="2"
       id="rect507"
       style="fill:#458ab3;fill-opacity:1" />
    <path
       d="M15,24a3,3,0,0,1-3-3V17h2v4a1,1,0,0,0,2,0V17h2v4A3,3,0,0,1,15,24Z"
       id="path509"
       style="fill:#458ab3;fill-opacity:1" />
    <path
       d="M19,24a3,3,0,0,1-3-3V17h2v4a1,1,0,0,0,2,0V17h2v4A3,3,0,0,1,19,24Z"
       id="path511"
       style="fill:#458ab3;fill-opacity:1" />
    <path
       d="M26,24a3,3,0,0,1-3-3V17h2v4a1,1,0,0,0,2,0V17h2v4A3,3,0,0,1,26,24Z"
       id="path513"
       style="fill:#458ab3;fill-opacity:1" />
    <path
       d="M30,24a3,3,0,0,1-3-3V17h2v4a1,1,0,0,0,2,0V17h2v4A3,3,0,0,1,30,24Z"
       id="path515"
       style="fill:#458ab3;fill-opacity:1" />
    <path
       d="M37,24a3,3,0,0,1-3-3V17h2v4a1,1,0,0,0,2,0V17h2v4A3,3,0,0,1,37,24Z"
       id="path517"
       style="fill:#458ab3;fill-opacity:1" />
    <path
       d="M41,24a3,3,0,0,1-3-3V17h2v4a1,1,0,0,0,2,0V17h2v4A3,3,0,0,1,41,24Z"
       id="path519"
       style="fill:#458ab3;fill-opacity:1" />
    <rect
       x="9"
       y="8"
       width="38"
       height="2"
       id="rect521"
       style="fill:#458ab3;fill-opacity:1" />
    <rect
       x="42"
       y="28"
       width="2"
       height="2"
       id="rect523"
       style="fill:#458ab3;fill-opacity:1" />
    <rect
       x="28"
       y="28"
       width="12"
       height="2"
       id="rect525"
       style="fill:#458ab3;fill-opacity:1" />
    <path
       d="M9,38H7a3,3,0,0,1-3-3V33H6v2a1,1,0,0,0,1,1H9Z"
       id="path527"
       style="fill:#458ab3;fill-opacity:1" />
    <rect
       x="11"
       y="36"
       width="2"
       height="2"
       id="rect529"
       style="fill:#458ab3;fill-opacity:1" />
  </g>
</svg>
